# Apple ModelIO OBJ File: MountainMidFront
mtllib MountainMidFront.mtl
g 
v -1 1 1
v 1 1 1
v 1 1 -1
v -1 1 -1
v -1 -1 -1
v 1 -1 -1
v 1 -1 1
v -1 -1 1
vn -0 1 -0
vn -0 -0 -1
vn 1 -0 -0
vn -0 -1 -0
vn -1 -0 -0
vn -0 -0 1
vt 0.625 0.5
vt 0.875 0.5
vt 0.875 0.75
vt 0.625 0.75
vt 0.375 0.75
vt 0.625 1
vt 0.375 1
vt 0.375 0
vt 0.625 0
vt 0.625 0.25
vt 0.375 0.25
vt 0.125 0.5
vt 0.375 0.5
vt 0.125 0.75
usemtl Material
f 1/1/1 2/2/1 3/3/1 4/4/1 
f 5/5/2 4/4/2 3/6/2 6/7/2 
f 6/8/3 3/9/3 2/10/3 7/11/3 
f 7/12/4 8/13/4 5/5/4 6/14/4 
f 8/13/5 1/1/5 4/4/5 5/5/5 
f 7/11/6 2/10/6 1/1/6 8/13/6 
s off
g _1
v -416.365 150.525 -0.420521
v -420.164 164.358 -0.42052
v -423.963 150.525 -0.420521
v -402.747 157.227 -0.42052
v -406.546 171.059 -0.420519
v -410.345 157.227 -0.42052
v -397.432 159.404 -0.42052
v -401.231 173.236 -0.420519
v -405.03 159.404 -0.42052
v -357.255 166.641 -0.42052
v -360.713 180.473 -0.420519
v -364.172 166.641 -0.42052
v -345.359 161.154 -0.42052
v -348.817 174.986 -0.420519
v -352.275 161.154 -0.42052
v -332.07 154.523 -0.420521
v -335.528 168.356 -0.42052
v -338.986 154.523 -0.420521
v -298.893 138.845 -0.420522
v -304.186 160.015 -0.42052
v -309.478 138.845 -0.420522
v -295.235 135.323 -0.420522
v -298.693 149.155 -0.420521
v -302.151 135.323 -0.420522
v -284.398 130.374 -0.420522
v -287.856 144.207 -0.420521
v -291.314 130.374 -0.420522
v -17.5844 130.799 -0.420522
v -21.0426 144.632 -0.420521
v -24.5007 130.799 -0.420522
v -5.74608 132.235 -0.420522
v -11.3681 154.723 -0.420521
v -16.9902 132.235 -0.420522
v 13.949 145.292 -0.420521
v 10.4908 159.125 -0.42052
v 7.03261 145.292 -0.420521
v 35.8968 154.517 -0.420521
v 32.4386 168.349 -0.42052
v 28.9804 154.517 -0.420521
v 30.3941 149.97 -0.420521
v 25.0479 171.355 -0.420519
v 19.7016 149.97 -0.420521
v 54.896 153.353 -0.420521
v 51.4379 167.185 -0.42052
v 47.9797 153.353 -0.420521
v 75.4028 142.445 -0.420521
v 71.9447 156.278 -0.42052
v 68.4865 142.445 -0.420521
v 79.9448 139.325 -0.420522
v 76.4866 153.158 -0.420521
v 73.0285 139.325 -0.420522
v 104.57 127.888 -0.420523
v 101.111 141.721 -0.420522
v 97.6533 127.888 -0.420523
v 292.052 127.933 -0.420523
v 288.593 141.766 -0.420522
v 285.135 127.933 -0.420523
v 313.277 138.101 -0.420522
v 309.819 151.934 -0.420521
v 306.361 138.101 -0.420522
v 342.681 149.403 -0.420521
v 337.883 168.596 -0.42052
v 333.085 149.403 -0.420521
v 410.336 151.507 -0.420521
v 405.065 170.7 -0.420519
v 399.794 151.507 -0.420521
v 418.035 143.183 -0.420521
v 412.763 162.376 -0.42052
v 407.492 143.183 -0.420521
v 463.759 123.534 -0.420523
v 458.488 142.727 -0.420521
v 453.217 123.534 -0.420523
v -248.117 110.507 -0.420524
v -253.395 131.622 -0.420522
v -258.674 110.507 -0.420524
v -241.272 104.546 -0.420524
v -246.551 125.661 -0.420523
v -251.83 104.546 -0.420524
v -186.96 114.481 -0.420524
v -192.239 135.596 -0.420522
v -197.518 114.481 -0.420524
v -178.57 110.065 -0.420524
v -183.849 131.181 -0.420522
v -189.128 110.065 -0.420524
v -126.245 114.481 -0.420524
v -131.524 135.596 -0.420522
v -136.803 114.481 -0.420524
v -117.193 107.637 -0.420524
v -122.472 128.752 -0.420523
v -127.751 107.637 -0.420524
v -59.7899 112.715 -0.420524
v -65.0687 133.83 -0.420522
v -70.3474 112.715 -0.420524
v -50.2963 112.052 -0.420524
v -55.5751 133.168 -0.420522
v -60.8538 112.052 -0.420524
v -41.2442 120.442 -0.420523
v -46.523 141.557 -0.420522
v -51.8018 120.442 -0.420523
v 156.478 110.964 -0.420524
v 151.199 132.079 -0.420522
v 145.92 110.964 -0.420524
v 164.274 103.877 -0.420524
v 158.995 124.992 -0.420523
v 153.716 103.877 -0.420524
v 234.437 97.853 -0.420525
v 229.158 118.968 -0.420523
v 223.88 97.853 -0.420525
v 251.092 109.547 -0.420524
v 245.813 130.662 -0.420522
v 240.535 109.547 -0.420524
v 241.879 97.4986 -0.420525
v 236.6 118.614 -0.420523
v 231.321 97.4986 -0.420525
v 489.722 115.102 -0.420524
v 483.923 136.217 -0.420522
v 478.124 115.102 -0.420524
v 509.278 102.793 -0.420524
v 503.479 123.908 -0.420523
v 497.68 102.793 -0.420524
v -456.253 125.978 -0.420523
v -462.052 147.094 -0.420521
v -467.851 125.978 -0.420523
v -518.05 94.7489 -0.420525
v -523.849 115.864 -0.420523
v -529.648 94.7489 -0.420525
v -509.143 94.7489 -0.420525
v -514.943 115.864 -0.420523
v -520.741 94.7489 -0.420525
v 579.68 95.1174 -0.420525
v 573.881 116.233 -0.420523
v 568.082 95.1174 -0.420525
v 594.238 99.4931 -0.420525
v 588.438 120.608 -0.420523
v 582.64 99.4931 -0.420525
v 649.905 133.304 -0.420522
v 644.106 154.419 -0.420521
v 638.307 133.304 -0.420522
v -578.676 97.8971 -0.420525
v -584.475 119.012 -0.420523
v -590.274 97.8971 -0.420525
v -665.797 147.81 -0.420521
v -671.596 168.925 -0.420519
v -677.395 147.81 -0.420521
v -648.375 133.663 -0.420522
v -654.174 154.778 -0.420521
v -659.973 133.663 -0.420522
v 700 -371.8 0.420504
v 700 169 0.420545
v 550.009 87.4811 0.420539
v 550.009 -371.8 0.420504
v 372.19 169 0.420545
v 204.977 93.6597 0.420539
v 204.977 -371.8 0.420504
v 41.3692 163.603 0.420545
v -90.6091 105.395 0.42054
v -90.6091 -371.8 0.420504
v -160.158 130.613 0.420542
v -226.831 104.134 0.42054
v -226.831 -371.8 0.420504
v -376.385 176.738 0.420546
v -550.009 87.4811 0.420539
v -550.009 -371.8 0.420504
v -700 169 0.420545
v -700 -371.8 0.420504
vn -0 -0 1
vt 0.033252 0.768838
vt 0.033273 0.772766
vt 0.033294 0.768838
vt 0.033176 0.770741
vt 0.033197 0.774669
vt 0.033218 0.770741
vt 0.033147 0.771359
vt 0.033168 0.775287
vt 0.033189 0.771359
vt 0.032925 0.773414
vt 0.032945 0.777342
vt 0.032964 0.773414
vt 0.03286 0.771856
vt 0.032879 0.775784
vt 0.032898 0.771856
vt 0.032786 0.769973
vt 0.032806 0.773901
vt 0.032825 0.769973
vt 0.032603 0.765521
vt 0.032633 0.771533
vt 0.032662 0.765521
vt 0.032583 0.764521
vt 0.032602 0.768449
vt 0.032621 0.764521
vt 0.032523 0.763116
vt 0.032542 0.767044
vt 0.032562 0.763116
vt 0.031051 0.763237
vt 0.03107 0.767164
vt 0.031089 0.763237
vt 0.030986 0.763644
vt 0.031017 0.77003
vt 0.031048 0.763644
vt 0.030877 0.767352
vt 0.030896 0.77128
vt 0.030915 0.767352
vt 0.030756 0.769971
vt 0.030775 0.773899
vt 0.030794 0.769971
vt 0.030786 0.76868
vt 0.030816 0.774753
vt 0.030845 0.76868
vt 0.030651 0.769641
vt 0.03067 0.773569
vt 0.030689 0.769641
vt 0.030538 0.766544
vt 0.030557 0.770471
vt 0.030576 0.766544
vt 0.030513 0.765657
vt 0.030532 0.769586
vt 0.030551 0.765657
vt 0.030377 0.76241
vt 0.030396 0.766338
vt 0.030415 0.76241
vt 0.029342 0.762423
vt 0.029361 0.766351
vt 0.02938 0.762423
vt 0.029225 0.76531
vt 0.029244 0.769238
vt 0.029263 0.76531
vt 0.029063 0.768519
vt 0.029089 0.773969
vt 0.029116 0.768519
vt 0.02869 0.769117
vt 0.028719 0.774567
vt 0.028748 0.769117
vt 0.028647 0.766753
vt 0.028676 0.772203
vt 0.028705 0.766753
vt 0.028395 0.761173
vt 0.028424 0.766624
vt 0.028453 0.761173
vt 0.032323 0.757474
vt 0.032352 0.76347
vt 0.032381 0.757474
vt 0.032285 0.755781
vt 0.032315 0.761777
vt 0.032344 0.755781
vt 0.031986 0.758603
vt 0.032015 0.764599
vt 0.032044 0.758603
vt 0.031939 0.757349
vt 0.031969 0.763345
vt 0.031998 0.757349
vt 0.031651 0.758603
vt 0.03168 0.764599
vt 0.031709 0.758603
vt 0.031601 0.756659
vt 0.03163 0.762655
vt 0.031659 0.756659
vt 0.031284 0.758101
vt 0.031313 0.764097
vt 0.031342 0.758101
vt 0.031232 0.757913
vt 0.031261 0.763909
vt 0.03129 0.757913
vt 0.031182 0.760296
vt 0.031211 0.766291
vt 0.03124 0.760296
vt 0.03009 0.757604
vt 0.03012 0.7636
vt 0.030149 0.757604
vt 0.030047 0.755592
vt 0.030077 0.761588
vt 0.030106 0.755592
vt 0.02966 0.753881
vt 0.029689 0.759877
vt 0.029718 0.753881
vt 0.029568 0.757202
vt 0.029597 0.763198
vt 0.029627 0.757202
vt 0.029619 0.75378
vt 0.029648 0.759776
vt 0.029677 0.75378
vt 0.028251 0.758779
vt 0.028283 0.764775
vt 0.028315 0.758779
vt 0.028143 0.755284
vt 0.028175 0.76128
vt 0.028207 0.755284
vt 0.033472 0.761867
vt 0.033504 0.767863
vt 0.033536 0.761867
vt 0.033813 0.752999
vt 0.033845 0.758995
vt 0.033877 0.752999
vt 0.033764 0.752999
vt 0.033796 0.758995
vt 0.033828 0.752999
vt 0.027755 0.753104
vt 0.027787 0.7591
vt 0.027819 0.753104
vt 0.027675 0.754347
vt 0.027707 0.760343
vt 0.027739 0.754347
vt 0.027367 0.763948
vt 0.027399 0.769944
vt 0.027431 0.763948
vt 0.034147 0.753893
vt 0.034179 0.759889
vt 0.034211 0.753893
vt 0.034628 0.768067
vt 0.03466 0.774063
vt 0.034692 0.768067
vt 0.034532 0.76405
vt 0.034564 0.770046
vt 0.034596 0.76405
vt 0.027091 0.620516
vt 0.027091 0.774084
vt 0.027919 0.750936
vt 0.027919 0.620516
vt 0.0289 0.774084
vt 0.029823 0.75269
vt 0.029823 0.620516
vt 0.030726 0.772552
vt 0.031454 0.756023
vt 0.031454 0.620516
vt 0.031838 0.763183
vt 0.032206 0.755664
vt 0.032206 0.620516
vt 0.033031 0.776281
vt 0.033989 0.750936
vt 0.033989 0.620516
vt 0.034817 0.774084
vt 0.034817 0.620516
usemtl Material
f 9/15/7 10/16/7 11/17/7
f 12/18/7 13/19/7 14/20/7
f 15/21/7 16/22/7 17/23/7
f 18/24/7 19/25/7 20/26/7
f 21/27/7 22/28/7 23/29/7
f 24/30/7 25/31/7 26/32/7
f 27/33/7 28/34/7 29/35/7
f 30/36/7 31/37/7 32/38/7
f 33/39/7 34/40/7 35/41/7
f 36/42/7 37/43/7 38/44/7
f 39/45/7 40/46/7 41/47/7
f 42/48/7 43/49/7 44/50/7
f 45/51/7 46/52/7 47/53/7
f 48/54/7 49/55/7 50/56/7
f 51/57/7 52/58/7 53/59/7
f 54/60/7 55/61/7 56/62/7
f 57/63/7 58/64/7 59/65/7
f 60/66/7 61/67/7 62/68/7
f 63/69/7 64/70/7 65/71/7
f 66/72/7 67/73/7 68/74/7
f 69/75/7 70/76/7 71/77/7
f 72/78/7 73/79/7 74/80/7
f 75/81/7 76/82/7 77/83/7
f 78/84/7 79/85/7 80/86/7
f 81/87/7 82/88/7 83/89/7
f 84/90/7 85/91/7 86/92/7
f 87/93/7 88/94/7 89/95/7
f 90/96/7 91/97/7 92/98/7
f 93/99/7 94/100/7 95/101/7
f 96/102/7 97/103/7 98/104/7
f 99/105/7 100/106/7 101/107/7
f 102/108/7 103/109/7 104/110/7
f 105/111/7 106/112/7 107/113/7
f 108/114/7 109/115/7 110/116/7
f 111/117/7 112/118/7 113/119/7
f 114/120/7 115/121/7 116/122/7
f 117/123/7 118/124/7 119/125/7
f 120/126/7 121/127/7 122/128/7
f 123/129/7 124/130/7 125/131/7
f 126/132/7 127/133/7 128/134/7
f 129/135/7 130/136/7 131/137/7
f 132/138/7 133/139/7 134/140/7
f 135/141/7 136/142/7 137/143/7
f 138/144/7 139/145/7 140/146/7
f 141/147/7 142/148/7 143/149/7
f 144/150/7 145/151/7 146/152/7
f 147/153/7 148/154/7 149/155/7
f 150/156/7 151/157/7 152/158/7
f 153/159/7 154/160/7 155/161/7
f 156/162/7 157/163/7 158/164/7
f 159/165/7 156/162/7 158/164/7
f 159/165/7 158/164/7 160/166/7
f 159/165/7 160/166/7 161/167/7
f 161/167/7 162/168/7 159/165/7
f 162/168/7 161/167/7 163/169/7
f 162/168/7 163/169/7 164/170/7
f 164/170/7 165/171/7 162/168/7
f 165/171/7 164/170/7 166/172/7
f 165/171/7 166/172/7 167/173/7
f 167/173/7 168/174/7 165/171/7
f 168/174/7 167/173/7 169/175/7
f 168/174/7 169/175/7 170/176/7
f 170/176/7 171/177/7 168/174/7
f 170/176/7 172/178/7 171/177/7
f 172/178/7 173/179/7 171/177/7
s off
