# Blender 4.4.1
# www.blender.org
mtllib MountainMidBack.mtl
o Cube
v -1.000000 1.000000 1.000000
v -1.000000 -1.000000 1.000000
v -1.000000 1.000000 -1.000000
v -1.000000 -1.000000 -1.000000
v 1.000000 1.000000 1.000000
v 1.000000 -1.000000 1.000000
v 1.000000 1.000000 -1.000000
v 1.000000 -1.000000 -1.000000
vn -0.0000 1.0000 -0.0000
vn -0.0000 -0.0000 -1.0000
vn 1.0000 -0.0000 -0.0000
vn -0.0000 -1.0000 -0.0000
vn -1.0000 -0.0000 -0.0000
vn -0.0000 -0.0000 1.0000
vt 0.625000 0.500000
vt 0.875000 0.500000
vt 0.875000 0.750000
vt 0.625000 0.750000
vt 0.375000 0.750000
vt 0.625000 1.000000
vt 0.375000 1.000000
vt 0.375000 0.000000
vt 0.625000 0.000000
vt 0.625000 0.250000
vt 0.375000 0.250000
vt 0.125000 0.500000
vt 0.375000 0.500000
vt 0.125000 0.750000
s 0
usemtl Material
f 1/1/1 5/2/1 7/3/1 3/4/1
f 4/5/2 3/4/2 7/6/2 8/7/2
f 8/8/3 7/9/3 5/10/3 6/11/3
f 6/12/4 2/13/4 4/5/4 8/14/4
f 2/13/5 1/1/5 3/4/5 4/5/5
f 6/11/6 5/10/6 1/1/6 2/13/6
o MountainsMidBack
v 528.356689 153.671249 -72.599106
v 532.155762 167.503906 -72.599106
v 535.954773 153.671249 -72.599106
v 497.539215 138.257111 -72.599113
v 501.338257 152.089767 -72.599106
v 505.137329 138.257111 -72.599113
v 492.996399 131.446640 -72.599113
v 496.795410 145.279297 -72.599113
v 500.594421 131.446640 -72.599113
v 475.790680 124.633217 -72.599113
v 479.589722 138.465866 -72.599113
v 483.388824 124.633217 -72.599113
v -102.909439 137.523956 -72.599113
v -97.539261 159.004623 -72.599106
v -92.169067 137.523956 -72.599113
v -514.461853 150.479660 -72.599113
v -510.662842 164.312317 -72.599106
v -506.863708 150.479660 -72.599113
v -502.406311 142.797867 -72.599113
v -498.607300 156.630600 -72.599106
v -494.808319 142.797867 -72.599113
v -483.933502 135.495575 -72.599113
v -480.134460 149.328308 -72.599113
v -476.335510 135.495575 -72.599113
v -478.058716 133.375168 -72.599113
v -474.259613 147.207886 -72.599113
v -470.460632 133.375168 -72.599113
v -246.464676 138.055817 -72.599113
v -243.006500 151.888489 -72.599106
v -239.548340 138.055817 -72.599113
v -241.641983 139.928116 -72.599113
v -236.408936 160.860489 -72.599106
v -231.175797 139.928116 -72.599113
v -208.161255 155.614044 -72.599106
v -204.703079 169.446701 -72.599106
v -201.244904 155.614044 -72.599106
v -202.043243 159.957764 -72.599106
v -196.916092 180.466385 -72.599106
v -191.788940 159.957764 -72.599106
v -156.426010 162.250931 -72.599106
v -152.967834 176.083664 -72.599106
v -149.509659 162.250931 -72.599106
v -144.607483 151.921570 -72.599106
v -138.754379 175.333923 -72.599106
v -132.901291 151.921570 -72.599106
v -92.486374 134.009781 -72.599113
v -89.028191 147.842499 -72.599113
v -85.570015 134.009781 -72.599113
v -81.856071 127.954910 -72.599113
v -78.397896 141.787628 -72.599113
v -74.939720 127.954910 -72.599113
v -57.078873 117.416939 -72.599113
v -53.620697 131.249680 -72.599113
v -50.162521 117.416939 -72.599113
v 133.848434 139.365845 -72.599113
v 137.306580 153.198517 -72.599106
v 140.764786 135.560699 -72.599113
v 148.286301 144.529755 -72.599113
v 151.744461 162.167572 -72.599106
v 155.202652 144.529755 -72.599113
v 193.160172 163.680222 -72.599106
v 196.618332 177.512894 -72.599106
v 200.076523 163.680222 -72.599106
v 217.569687 145.850754 -72.599113
v 222.128708 164.086746 -72.599106
v 226.687698 145.850754 -72.599113
v 225.103653 145.143768 -72.599113
v 228.561813 158.976440 -72.599106
v 232.020004 145.143768 -72.599113
v 258.025360 124.293282 -72.599113
v 261.483551 138.125992 -72.599113
v 264.941711 124.293282 -72.599113
v 160.421097 163.652924 -72.490219
v 160.421097 154.729004 -72.490219
v 160.950348 165.107040 -72.490219
v 161.945023 166.292435 -72.490219
v 163.285141 167.066147 -72.490219
v 164.809052 167.334839 -72.490219
v 166.332962 167.066147 -72.490219
v 167.673080 166.292435 -72.490219
v 168.667740 165.107025 -72.490219
v 169.197006 163.652924 -72.490219
v 156.407242 154.729004 -72.490219
v 173.210846 154.729004 -72.490219
v 173.210846 170.886414 -72.490219
v 169.197006 170.886414 -72.490219
v 169.197006 171.165619 -72.490219
v 173.210846 172.478180 -72.490219
v 172.207382 173.008743 -72.490219
v 170.200470 173.008743 -72.490219
v 169.197006 162.309143 -72.490219
v 169.768753 154.729004 -72.490219
v 169.197006 154.729004 -73.063461
v 156.407242 170.886414 -72.904770
v 162.181656 170.886414 -72.490219
v 156.407242 170.215363 -72.490219
v -184.198685 173.266022 -72.850571
v -184.198685 164.342087 -72.850571
v -183.669434 174.720123 -72.850571
v -182.674759 175.905533 -72.850571
v -181.334656 176.679230 -72.850571
v -179.810730 176.947937 -72.850571
v -178.286819 176.679230 -72.850571
v -176.946701 175.905533 -72.850571
v -175.952026 174.720123 -72.850571
v -175.422775 173.266022 -72.850571
v -175.422775 164.342087 -72.850571
v -188.212540 164.342087 -72.850571
v -188.212540 180.499512 -72.850571
v -171.146301 173.266022 -72.850571
v -171.146301 164.342087 -72.850571
v -170.617065 174.720123 -72.850571
v -169.622375 175.905533 -72.850571
v -168.282272 176.679230 -72.850571
v -166.758362 176.947937 -72.850571
v -165.234436 176.679230 -72.850571
v -163.894318 175.905533 -72.850571
v -162.899658 174.720123 -72.850571
v -162.370407 173.266022 -72.850571
v -162.370407 164.342087 -72.850571
v -158.356552 164.342087 -72.850571
v -158.356552 180.499512 -72.850571
v -184.198685 180.499512 -72.850571
v -175.422775 180.499512 -72.850571
v -171.146301 180.499512 -72.850571
v -162.370407 180.499512 -72.850571
v -188.212540 187.778137 -72.850571
v -171.146301 196.166702 -72.850571
v -158.356552 189.455002 -72.850571
v -185.523605 186.453247 -72.850571
v -186.942566 187.778137 -72.850571
v -184.198685 185.771423 -72.850571
v -172.597000 196.903839 -72.850571
v -174.835022 195.578949 -72.850571
v -175.422775 194.159973 -72.850571
v -160.363678 189.455002 -72.850571
v -161.782654 190.095840 -72.850571
v -162.370407 187.448273 -72.850571
v 374.423798 70.722992 -71.758049
v 550.008728 169.000000 -71.758041
v 183.818497 175.415222 -71.758041
v 40.386806 78.781670 -71.758049
v -172.811172 175.397446 -71.758041
v -355.733002 87.669968 -71.758049
v -550.008728 169.000000 -71.758041
v 700.000061 -371.799988 -71.758087
v 700.000061 70.722992 -71.758049
v -700.000061 -371.799988 -71.758087
v -700.000061 70.722992 -71.758049
v -573.577148 149.924927 -72.599113
v -569.778076 163.757584 -72.599106
v -565.979004 149.924927 -72.599113
v -623.064819 119.074219 -72.599113
v -619.265808 132.906860 -72.599113
v -615.466675 119.074219 -72.599113
v -635.461670 112.419838 -72.599113
v -631.662659 126.252495 -72.599113
v -627.863525 112.419838 -72.599113
v 565.309021 150.847641 -72.599113
v 569.108093 164.680298 -72.599106
v 572.907104 150.847641 -72.599113
v 624.892822 113.596100 -72.599113
v 628.691895 127.428757 -72.599113
v 632.490906 113.596100 -72.599113
v 613.464600 120.263405 -72.599113
v 617.263672 134.096054 -72.599113
v 621.062683 120.263405 -72.599113
v 169.197006 171.165619 -72.490219
v 173.210846 170.886414 -72.490219
v 172.207382 173.008743 -72.490219
v 169.768753 154.729004 -72.490219
v 169.197006 162.309143 -72.490219
v 169.197006 163.652924 -72.490219
v 169.197006 170.886414 -72.490219
v 169.768753 154.729004 -72.490219
v 156.407242 170.215363 -72.490219
v 162.181656 170.886414 -72.490219
v 162.181656 170.886414 -72.490219
v 160.421097 163.652924 -72.490219
v 160.950348 165.107040 -72.490219
v -184.198685 180.499512 -72.850571
v -184.198685 164.342087 -72.850571
v -184.198685 173.266022 -72.850571
v -175.422775 180.499512 -72.850571
v -182.674759 175.905533 -72.850571
v -181.334656 176.679230 -72.850571
v -171.146301 180.499512 -72.850571
v -171.146301 164.342087 -72.850571
v -171.146301 173.266022 -72.850571
v -162.370407 180.499512 -72.850571
v -169.622375 175.905533 -72.850571
v -168.282272 176.679230 -72.850571
vn -0.0000 -0.0000 1.0000
vn -0.7070 -0.0533 0.7052
vn -0.0610 0.5246 0.8492
vn -0.0000 -0.0000 -1.0000
vn 0.0001 -0.0000 1.0000
vt 0.032245 0.772216
vt 0.032275 0.776989
vt 0.032305 0.772216
vt 0.032491 0.766899
vt 0.032521 0.771671
vt 0.032551 0.766899
vt 0.032527 0.764549
vt 0.032557 0.769322
vt 0.032588 0.764549
vt 0.032664 0.762199
vt 0.032695 0.766971
vt 0.032725 0.762199
vt 0.037256 0.766646
vt 0.037299 0.774057
vt 0.037342 0.766646
vt 0.040565 0.771116
vt 0.040595 0.775888
vt 0.040626 0.771116
vt 0.040469 0.768466
vt 0.040499 0.773238
vt 0.040529 0.768466
vt 0.040321 0.765946
vt 0.040352 0.770718
vt 0.040382 0.765946
vt 0.040275 0.765215
vt 0.040305 0.769987
vt 0.040335 0.765215
vt 0.038432 0.766830
vt 0.038460 0.771602
vt 0.038487 0.766830
vt 0.038365 0.767476
vt 0.038407 0.774697
vt 0.038449 0.767476
vt 0.038127 0.772887
vt 0.038154 0.777659
vt 0.038182 0.772887
vt 0.038051 0.774385
vt 0.038092 0.781461
vt 0.038133 0.774385
vt 0.037714 0.775177
vt 0.037741 0.779949
vt 0.037769 0.775177
vt 0.037581 0.771613
vt 0.037628 0.779690
vt 0.037675 0.771613
vt 0.037204 0.765434
vt 0.037231 0.770206
vt 0.037259 0.765434
vt 0.037119 0.763345
vt 0.037146 0.768117
vt 0.037174 0.763345
vt 0.036921 0.759709
vt 0.036949 0.764481
vt 0.036976 0.759709
vt 0.035398 0.765969
vt 0.035425 0.772053
vt 0.035453 0.767282
vt 0.035283 0.769063
vt 0.035310 0.775147
vt 0.035338 0.769063
vt 0.034925 0.775670
vt 0.034952 0.780442
vt 0.034980 0.775670
vt 0.034712 0.769519
vt 0.034749 0.775810
vt 0.034785 0.769519
vt 0.034670 0.769275
vt 0.034697 0.774047
vt 0.034725 0.769275
vt 0.034407 0.762082
vt 0.034435 0.766853
vt 0.034462 0.762082
vt 0.035166 0.772582
vt 0.035171 0.775197
vt 0.035171 0.772582
vt 0.035227 0.778156
vt 0.035273 0.778156
vt 0.035273 0.777924
vt 0.035171 0.778252
vt 0.035171 0.778156
vt 0.035139 0.778156
vt 0.035139 0.778705
vt 0.035147 0.778888
vt 0.035171 0.775660
vt 0.035241 0.775660
vt 0.035237 0.776162
vt 0.037991 0.775898
vt 0.037991 0.778977
vt 0.037991 0.781473
vt 0.037978 0.779888
vt 0.037968 0.780155
vt 0.037921 0.781473
vt 0.037886 0.775898
vt 0.037886 0.778977
vt 0.037886 0.781473
vt 0.037874 0.779888
vt 0.037864 0.780155
vt 0.037816 0.781473
vt 0.041037 0.770924
vt 0.041067 0.775696
vt 0.041097 0.770924
vt 0.041432 0.760281
vt 0.041462 0.765053
vt 0.041492 0.760281
vt 0.041530 0.757985
vt 0.041561 0.762757
vt 0.041591 0.757985
vt 0.031950 0.771243
vt 0.031980 0.776015
vt 0.032011 0.771243
vt 0.031475 0.758391
vt 0.031505 0.763163
vt 0.031535 0.758391
vt 0.031566 0.760691
vt 0.031596 0.765464
vt 0.031626 0.760691
vt 0.035163 0.778888
vt 0.035139 0.772582
vt 0.035175 0.776162
vt 0.035183 0.776571
vt 0.035194 0.776838
vt 0.035206 0.776931
vt 0.035218 0.776838
vt 0.035229 0.776571
vt 0.035241 0.772582
vt 0.035273 0.772582
vt 0.038023 0.781473
vt 0.038023 0.775898
vt 0.038023 0.783983
vt 0.038013 0.783983
vt 0.038001 0.783527
vt 0.037991 0.783291
vt 0.037986 0.779479
vt 0.037921 0.786185
vt 0.037916 0.786675
vt 0.037898 0.787132
vt 0.037886 0.786877
vt 0.037921 0.778977
vt 0.037921 0.775898
vt 0.037925 0.779479
vt 0.037933 0.779888
vt 0.037943 0.780155
vt 0.037956 0.780247
vt 0.037882 0.779479
vt 0.037851 0.780247
vt 0.037839 0.780155
vt 0.037829 0.779888
vt 0.037821 0.779479
vt 0.037816 0.778977
vt 0.037784 0.775898
vt 0.037816 0.775898
vt 0.037784 0.781473
vt 0.037816 0.783870
vt 0.037812 0.784783
vt 0.037800 0.784562
vt 0.037784 0.784562
vt 0.042106 0.743600
vt 0.042106 0.590931
vt 0.030936 0.590931
vt 0.040909 0.777505
vt 0.039359 0.749446
vt 0.037900 0.779713
vt 0.036199 0.746381
vt 0.035054 0.779719
vt 0.033534 0.743600
vt 0.032133 0.777505
vt 0.030936 0.743600
s 0
f 11/15/7 10/16/7 9/17/7
f 14/18/7 13/19/7 12/20/7
f 17/21/7 16/22/7 15/23/7
f 20/24/7 19/25/7 18/26/7
f 23/27/7 22/28/7 21/29/7
f 26/30/7 25/31/7 24/32/7
f 29/33/7 28/34/7 27/35/7
f 32/36/7 31/37/7 30/38/7
f 35/39/7 34/40/7 33/41/7
f 38/42/7 37/43/7 36/44/7
f 41/45/7 40/46/7 39/47/7
f 44/48/7 43/49/7 42/50/7
f 47/51/7 46/52/7 45/53/7
f 50/54/7 49/55/7 48/56/7
f 53/57/7 52/58/7 51/59/7
f 56/60/7 55/61/7 54/62/7
f 59/63/7 58/64/7 57/65/7
f 62/66/7 61/67/7 60/68/7
f 65/69/7 64/70/7 63/71/7
f 68/72/7 67/73/7 66/74/7
f 71/75/7 70/76/7 69/77/7
f 74/78/7 73/79/7 72/80/7
f 77/81/7 76/82/7 75/83/7
f 80/84/7 79/85/7 78/86/7
f 100/87/8 99/88/8 101/89/8
f 103/90/9 102/91/9 104/92/9
f 95/93/7 94/94/7 93/95/7
f 93/95/7 96/96/7 178/97/7
f 90/98/7 180/88/7 179/87/7
f 187/99/7 83/100/7 186/90/7
f 190/101/10 105/102/10 189/103/10
f 193/104/11 109/105/11 192/106/11
f 196/107/10 118/108/10 195/109/10
f 199/110/11 122/111/11 198/112/11
f 160/113/7 159/114/7 158/115/7
f 163/116/7 162/117/7 161/118/7
f 166/119/7 165/120/7 164/121/7
f 169/122/7 168/123/7 167/124/7
f 172/125/7 171/126/7 170/127/7
f 175/128/7 174/129/7 173/130/7
f 177/95/7 98/131/7 176/93/7
f 177/95/7 97/97/7 98/131/7
f 183/87/7 177/95/7 182/94/7
f 183/87/7 92/132/7 177/95/7
f 183/87/7 182/94/7 181/98/7
f 89/133/7 181/98/7 182/94/7
f 88/134/7 89/133/7 182/94/7
f 87/135/7 88/134/7 182/94/7
f 86/136/7 87/135/7 182/94/7
f 85/137/7 86/136/7 182/94/7
f 85/137/7 182/94/7 185/90/7
f 84/138/7 85/137/7 185/90/7
f 188/100/7 84/138/7 185/90/7
f 81/99/7 185/90/7 184/92/7
f 82/139/7 81/99/7 184/92/7
f 184/92/7 91/140/7 82/139/7
f 117/141/7 116/142/7 106/101/7
f 106/101/7 131/103/7 117/141/7
f 135/143/7 117/141/7 131/103/7
f 131/103/7 139/144/7 135/143/7
f 131/103/7 138/145/7 139/144/7
f 131/103/7 140/146/7 138/145/7
f 131/103/7 191/102/7 107/147/7
f 107/147/7 108/104/7 131/103/7
f 108/104/7 132/106/7 131/103/7
f 143/148/7 132/106/7 133/109/7
f 133/109/7 142/149/7 143/148/7
f 133/109/7 141/150/7 142/149/7
f 133/109/7 136/151/7 141/150/7
f 119/107/7 133/109/7 132/106/7
f 119/107/7 132/106/7 114/152/7
f 114/152/7 115/153/7 119/107/7
f 113/154/7 114/152/7 132/106/7
f 112/155/7 113/154/7 132/106/7
f 111/156/7 112/155/7 132/106/7
f 110/157/7 111/156/7 132/106/7
f 194/105/7 110/157/7 132/106/7
f 133/109/7 197/108/7 120/158/7
f 120/158/7 121/110/7 133/109/7
f 121/110/7 134/112/7 133/109/7
f 200/111/7 123/159/7 134/112/7
f 123/159/7 124/160/7 134/112/7
f 124/160/7 125/161/7 134/112/7
f 125/161/7 126/162/7 134/112/7
f 126/162/7 127/163/7 134/112/7
f 129/164/7 134/112/7 127/163/7
f 127/163/7 128/165/7 129/164/7
f 129/164/7 130/166/7 134/112/7
f 146/167/7 134/112/7 130/166/7
f 130/166/7 145/168/7 146/167/7
f 130/166/7 144/169/7 145/168/7
f 130/166/7 137/170/7 144/169/7
f 157/171/7 156/172/7 154/173/7
f 154/173/7 153/174/7 157/171/7
f 154/173/7 152/175/7 153/174/7
f 154/173/7 151/176/7 152/175/7
f 154/173/7 150/177/7 151/176/7
f 154/173/7 149/178/7 150/177/7
f 154/173/7 147/179/7 149/178/7
f 154/173/7 148/180/7 147/179/7
f 154/173/7 155/181/7 148/180/7
