# Blender 4.4.1
# www.blender.org
mtllib sun_halo.mtl
o Background_Shared_Sun_Halo-直径4.2m圆环
v -2.035124 0.661251 0.000000
v -1.731179 1.257775 0.000000
v -1.210750 0.879661 0.000000
v -1.423322 0.462465 0.000000
v -0.879661 1.210749 0.000000
v -2.139853 -0.000000 0.000000
v -1.257775 1.731179 0.000000
v -1.496568 -0.000000 0.000000
v -0.462465 1.423321 0.000000
v -2.035122 -0.661251 0.000000
v -0.661251 2.035123 0.000000
v -1.423321 -0.462465 0.000000
v 0.000000 1.496569 0.000000
v -1.731178 -1.257775 -0.000000
v 0.000000 2.139855 0.000000
v -1.210749 -0.879661 0.000000
v 0.462465 1.423321 0.000000
v -1.257774 -1.731179 -0.000000
v 0.661251 2.035123 0.000000
v -0.879661 -1.210750 -0.000000
v 0.879661 1.210749 0.000000
v -0.661251 -2.035122 -0.000000
v 1.257775 1.731179 0.000000
v -0.462465 -1.423321 -0.000000
v 1.210750 0.879661 0.000000
v 0.000000 -2.139854 -0.000000
v 1.731179 1.257775 0.000000
v 0.000000 -1.496569 -0.000000
v 1.423321 0.462465 0.000000
v 0.661251 -2.035122 -0.000000
v 2.035123 0.661251 0.000000
v 0.462465 -1.423321 -0.000000
v 1.496569 -0.000000 0.000000
v 1.257775 -1.731179 -0.000000
v 2.139854 -0.000000 0.000000
v 0.879661 -1.210750 -0.000000
v 1.423321 -0.462465 0.000000
v 1.731179 -1.257775 -0.000000
v 2.035123 -0.661251 0.000000
v 1.210750 -0.879661 0.000000
vn -0.0000 -0.0000 1.0000
vt 0.563204 0.886546
vt 0.626409 0.935591
vt 0.648603 0.892034
vt 0.574301 0.864767
vt 0.545921 0.903829
vt 0.656250 0.843750
vt 0.591841 0.970159
vt 0.578125 0.840625
vt 0.524142 0.914926
vt 0.648603 0.795466
vt 0.548284 0.992353
vt 0.574301 0.816483
vt 0.500000 0.918750
vt 0.626409 0.751908
vt 0.500000 1.000000
vt 0.563205 0.794704
vt 0.475858 0.914926
vt 0.591842 0.717341
vt 0.451716 0.992353
vt 0.545921 0.777421
vt 0.454079 0.903829
vt 0.548284 0.695147
vt 0.408159 0.970159
vt 0.524142 0.766324
vt 0.436796 0.886546
vt 0.500000 0.687500
vt 0.373591 0.935591
vt 0.500000 0.762500
vt 0.425699 0.864767
vt 0.451716 0.695147
vt 0.351397 0.892034
vt 0.475858 0.766324
vt 0.421875 0.840625
vt 0.408159 0.717341
vt 0.343750 0.843750
vt 0.454079 0.777421
vt 0.425699 0.816483
vt 0.373591 0.751909
vt 0.351397 0.795466
vt 0.436796 0.794704
s 0
f 3/1/1 2/2/1 1/3/1
f 4/4/1 3/1/1 1/3/1
f 3/1/1 5/5/1 2/2/1
f 4/4/1 1/3/1 6/6/1
f 5/5/1 7/7/1 2/2/1
f 8/8/1 4/4/1 6/6/1
f 5/5/1 9/9/1 7/7/1
f 8/8/1 6/6/1 10/10/1
f 9/9/1 11/11/1 7/7/1
f 12/12/1 8/8/1 10/10/1
f 9/9/1 13/13/1 11/11/1
f 12/12/1 10/10/1 14/14/1
f 13/13/1 15/15/1 11/11/1
f 16/16/1 12/12/1 14/14/1
f 13/13/1 17/17/1 15/15/1
f 16/16/1 14/14/1 18/18/1
f 17/17/1 19/19/1 15/15/1
f 20/20/1 16/16/1 18/18/1
f 17/17/1 21/21/1 19/19/1
f 20/20/1 18/18/1 22/22/1
f 21/21/1 23/23/1 19/19/1
f 24/24/1 20/20/1 22/22/1
f 21/21/1 25/25/1 23/23/1
f 24/24/1 22/22/1 26/26/1
f 25/25/1 27/27/1 23/23/1
f 28/28/1 24/24/1 26/26/1
f 25/25/1 29/29/1 27/27/1
f 28/28/1 26/26/1 30/30/1
f 29/29/1 31/31/1 27/27/1
f 32/32/1 28/28/1 30/30/1
f 29/29/1 33/33/1 31/31/1
f 32/32/1 30/30/1 34/34/1
f 33/33/1 35/35/1 31/31/1
f 36/36/1 32/32/1 34/34/1
f 33/33/1 37/37/1 35/35/1
f 36/36/1 34/34/1 38/38/1
f 37/37/1 39/39/1 35/35/1
f 40/40/1 36/36/1 38/38/1
f 40/40/1 38/38/1 39/39/1
f 37/37/1 40/40/1 39/39/1
